<?xml version="1.0" encoding="UTF-8" standalone="no"?>
<!-- Created with Inkscape (http://www.inkscape.org/) -->

<svg
   version="1.1"
   id="svg48"
   width="682.66669"
   height="682.66669"
   viewBox="0 0 682.66669 682.66669"
   sodipodi:docname="supersimple.svg"
   inkscape:version="0.0"
   inkscape:export-filename="logo512.svg"
   inkscape:export-xdpi="96"
   inkscape:export-ydpi="96"
   xmlns:inkscape="http://www.inkscape.org/namespaces/inkscape"
   xmlns:sodipodi="http://sodipodi.sourceforge.net/DTD/sodipodi-0.dtd"
   xmlns="http://www.w3.org/2000/svg"
   xmlns:svg="http://www.w3.org/2000/svg">
  <defs
     id="defs52">
    <linearGradient
       id="linearGradient4239"
       inkscape:swatch="solid">
      <stop
         style="stop-color:#ffe8e8;stop-opacity:1;"
         offset="0"
         id="stop4237" />
    </linearGradient>
  </defs>
  <sodipodi:namedview
     id="namedview50"
     pagecolor="#ffffff"
     bordercolor="#000000"
     borderopacity="0.25"
     inkscape:showpageshadow="2"
     inkscape:pageopacity="0.0"
     inkscape:pagecheckerboard="0"
     inkscape:deskcolor="#d1d1d1"
     showgrid="false"
     inkscape:connector-spacing="7"
     inkscape:zoom="1.3189397"
     inkscape:cx="277.11652"
     inkscape:cy="300.99934"
     inkscape:window-width="1920"
     inkscape:window-height="1131"
     inkscape:window-x="0"
     inkscape:window-y="0"
     inkscape:window-maximized="1"
     inkscape:current-layer="g54" />
  <g
     inkscape:groupmode="layer"
     inkscape:label="Image"
     id="g54">
    <path
       style="fill:#8c0327;fill-opacity:1;stroke:#8c0327;stroke-width:20;stroke-dasharray:none;stroke-opacity:0.996078"
       d="m 242.78392,502.96864 c -0.98368,-0.42723 -3.31277,-2.30103 -5.17575,-4.16401 -3.92469,-3.92469 -3.70411,-3.04732 -4.62726,-18.40533 -1.12088,-18.64749 -4.58503,-32.80975 -12.04608,-49.24724 -5.89796,-12.99386 -11.54716,-21.87122 -27.16786,-42.69264 -20.29511,-27.0521 -30.45584,-43.44484 -39.15788,-63.17506 -8.9118,-20.20582 -15.7495,-45.17197 -18.48034,-67.47634 -1.06078,-8.66402 -0.87954,-40.90293 0.27625,-49.1371 8.43955,-60.12598 38.84758,-112.395772 84.90168,-145.941509 30.93503,-22.533027 72.4162,-38.047669 108.93202,-40.742363 9.26149,-0.683455 29.85234,-0.349632 38.2644,0.620349 34.19175,3.942602 69.58121,17.403918 98.12897,37.325951 13.64321,9.520902 29.68836,24.065122 40.13775,36.383066 26.90262,31.713356 44.12326,72.069616 49.18016,115.252836 1.32081,11.27898 1.32514,35.09393 0.008,46.23877 -3.24254,27.44507 -11.49481,54.86654 -24.06006,79.94919 -6.71277,13.39997 -13.64016,24.00346 -28.38238,43.4438 -17.85847,23.54969 -20.32989,26.93937 -23.57389,32.33287 -6.40623,10.65106 -13.45712,27.91178 -16.44376,40.25467 -1.83544,7.58534 -2.81043,14.1909 -4.12281,27.93215 -1.21395,12.71063 -1.586,14.61468 -3.36707,17.23164 -2.45576,3.60828 -3.55396,4.02868 -10.52416,4.02868 -7.25834,0 -8.05575,-0.35037 -10.98187,-4.82521 l -1.74894,-2.67458 -0.16799,-15.06821 c -0.0924,-8.28751 0.0843,-18.09254 0.39257,-21.78896 1.40901,-16.89328 9.90117,-40.13828 21.35631,-58.45713 4.58803,-7.33709 8.29364,-12.50029 19.78578,-27.56848 18.60271,-24.39138 26.37867,-36.30125 34.22626,-52.42186 9.08582,-18.66419 15.3237,-39.65166 17.97783,-60.48676 1.83265,-14.38639 1.55341,-39.26429 -0.61778,-55.04078 -1.4487,-10.52661 -5.84286,-25.92597 -11.76846,-41.24257 -5.35225,-13.8346 -14.81991,-30.46392 -24.46468,-42.97062 C 483.60041,112.82085 463.6126,93.092141 456.08921,87.484959 435.8382,72.391882 412.15731,61.244786 386.84244,54.88904 c -15.46485,-3.882724 -21.53245,-4.563365 -40.92151,-4.590423 -21.4168,-0.02989 -29.68848,1.024058 -46.69569,5.949792 -25.85011,7.486875 -45.20042,16.978911 -63.52464,31.161171 -7.31783,5.663727 -24.44575,22.56943 -30.19202,29.80032 -22.66824,28.52485 -35.67326,60.10244 -39.96708,97.04435 -0.93861,8.07535 -1.08291,28.48754 -0.26798,37.90834 1.89208,21.87285 10.79,52.88997 20.99539,73.18748 6.27073,12.47186 18.56664,30.70728 31.67771,46.97955 9.23244,11.45846 19.15443,25.55508 24.59829,34.9479 6.47522,11.17232 14.93758,35.68392 16.54021,47.90943 0.91203,6.95738 1.13537,36.60414 0.30278,40.19244 -0.55681,2.39976 -2.51996,4.67887 -5.91536,6.86741 -1.97517,1.27312 -2.95567,1.53706 -5.64543,1.51967 -1.79032,-0.0116 -4.05995,-0.3706 -5.04363,-0.79783 z"
       id="path2579" />
    <path
       style="fill:#8c0327;fill-opacity:1;stroke:#8c0327;stroke-width:6.21162;stroke-dasharray:none;stroke-opacity:0.996078"
       d="m 273.95335,578.9878 c -11.75246,-0.35289 -18.92585,-0.91868 -21.35772,-1.68457 -3.09547,-0.97488 -7.20286,-12.57571 -6.88478,-19.44514 0.25893,-5.59076 3.77202,-14.27337 6.65509,-16.44794 1.94045,-1.46359 8.58149,-1.86417 40.75414,-2.45821 33.13773,-0.61184 128.33986,-0.26833 137.16557,0.49495 9.71793,0.84042 11.79098,1.76263 14.6338,6.50987 2.55275,4.26286 2.80531,5.4591 2.80531,13.28743 0,6.08144 -0.0705,7.03119 -0.64666,8.70883 -0.7018,2.04362 -3.39879,6.394 -4.85948,7.8386 -1.26474,1.25082 -4.31154,2.15853 -9.42532,2.80802 -5.21521,0.66236 -138.83352,0.9889 -158.83995,0.38816 z"
       id="path3029" />
    <path
       style="fill:#8c0327;fill-opacity:1;stroke:#8c0327;stroke-width:7.29844;stroke-dasharray:none;stroke-opacity:0.996078"
       d="m 327.8064,657.09921 c -14.86305,-1.63994 -31.19005,-8.40784 -42.43044,-17.58832 -9.52536,-7.77975 -19.63443,-20.94799 -21.4977,-28.00326 -1.07862,-4.0842 -0.67492,-5.66582 1.62483,-6.36579 1.04026,-0.31662 36.54873,-0.57567 78.90776,-0.57567 61.44188,0 77.33788,0.1993 78.60619,0.98555 4.27815,2.65218 0.17789,12.24507 -10.06867,23.55643 -17.63059,19.46271 -36.90167,27.60329 -67.12438,28.35498 -6.60646,0.16431 -14.71437,5.5e-4 -18.01759,-0.36392 z"
       id="path4028" />
  </g>
</svg>
